<?xml version="1.0" encoding="UTF-8"?>
<svg id="_レイヤー_1" data-name="レイヤー 1" xmlns="http://www.w3.org/2000/svg" version="1.1" viewBox="0 0 341 109">
  <defs>
    <style>
      .cls-1 {
        fill: #000;
        stroke-width: 0px;
      }
    </style>
  </defs>
  <path class="cls-1" d="M22.1,42.5v-2.7h11.3l.5-.2,1.8,1.3c0,.2-.4.4-.6.4-1,4.5-2.8,10.1-4.5,14.2,2.2,3.9,5.9,10.7,7.5,13.9l-1.8,2.2c-1.4-3.2-4.8-9.8-6.8-13.5-2.2,4.8-5,9.9-8.3,13.4-.3-.6-1-1.8-1.4-2.2,5.1-5.3,10.4-16.2,12.8-26.8h-10.6Z"/>
  <path class="cls-1" d="M42.1,54.4h15.2v2.7h-15.2v-2.7Z"/>
  <path class="cls-1" d="M68.2,43.4c0,.3-.3.7-.8.8-.9,10.2-2.4,19.3-5,25.8-.2-.7-1.3-1.6-1.8-2.3,2.4-6.1,4.1-14.8,4.9-25.4l2.6,1ZM77.4,69.9c-.7-7.6-3.1-19-5-26.7l1.7-1.3c2.2,8,4.8,18.8,5.6,25.9l-2.2,2.1Z"/>
  <path class="cls-1" d="M85.3,44.5c-2,0-3.6-2-3.6-4.4s1.6-4.4,3.6-4.4,3.6,2,3.6,4.4-1.6,4.4-3.6,4.4ZM85.3,43.2c1.4,0,2.4-1.4,2.4-3.1s-1-3.1-2.4-3.1-2.4,1.4-2.4,3.1,1.1,3.1,2.4,3.1Z"/>
  <path class="cls-1" d="M103.5,54.4h15.2v2.7h-15.2v-2.7Z"/>
  <path class="cls-1" d="M126.1,46.5c1.9,1.3,4.1,3.1,6.2,5.1,1.3-4,2.5-9,3.2-13.5l3.2.8c0,.4-.5.7-1.1.7-.9,4.6-2,9.5-3.4,13.9,2.1,2,3.9,4,5.1,5.7l-1.4,2.6c-1.1-1.7-2.7-3.7-4.6-5.6-2,5.7-4.8,11.5-8.2,15.9-.4-.6-1.4-1.4-2-1.8,3.5-4.3,6.3-10,8.4-16-2.2-2.2-4.6-4.3-6.5-5.8l1.1-2Z"/>
  <path class="cls-1" d="M152.1,52.6c-2.1,3.1-5,6.3-7.6,8.8-.3-.7-.8-1.4-1.5-2.2,6.3-5.6,12.1-14.2,15-21.3l2.7,1.4c-.2.3-.6.4-.9.4-1.5,3.3-3.7,7.1-5.6,9.9.1,0,.4.2.7.4,0,.2-.2.4-.5.4v22.1h-2.4v-19.9Z"/>
  <path class="cls-1" d="M169.2,37.1l3.2.2c0,.4-.3.7-.8.8v12c2.8,1.4,7.4,4,9.7,5.5l-1.1,2.5c-2.2-1.5-5.9-3.8-8.6-5.3v19.8h-2.4v-35.6Z"/>
  <path class="cls-1" d="M185,37.2c1.3,1.5,2.5,3.5,3.1,5.2l-1.3.7c-.6-1.7-1.8-3.7-3-5.2l1.1-.7ZM188.6,35.3c1.3,1.5,2.5,3.4,3.1,5.1l-1.2.7c-.6-1.6-1.9-3.7-3.1-5.2l1.2-.6Z"/>
  <path class="cls-1" d="M211.4,43.4c0,.3-.3.7-.8.8-.9,10.2-2.4,19.3-5,25.8-.2-.7-1.3-1.6-1.8-2.3,2.4-6.1,4.1-14.8,4.9-25.4l2.6,1ZM220.6,69.9c-.7-7.6-3.1-19-5-26.7l1.7-1.3c2.2,8,4.8,18.8,5.6,25.9l-2.2,2.1Z"/>
  <path class="cls-1" d="M228.5,44.5c-2,0-3.6-2-3.6-4.4s1.6-4.4,3.6-4.4,3.6,2,3.6,4.4-1.6,4.4-3.6,4.4ZM228.5,43.2c1.4,0,2.4-1.4,2.4-3.1s-1-3.1-2.4-3.1-2.4,1.4-2.4,3.1,1.1,3.1,2.4,3.1Z"/>
  <path class="cls-1" d="M246.6,54.4h15.2v2.7h-15.2v-2.7Z"/>
  <path class="cls-1" d="M283,49.9v2.6h-6.8c-.3,7.4-1.8,15.9-6.5,20.2-.4-.6-1.3-1.5-1.8-2,4.4-3.7,5.9-11.5,6.2-18.3h-7.5v-2.6h16.5ZM268.3,38.7h13.2v2.6h-13.2v-2.6Z"/>
  <path class="cls-1" d="M295.1,56.9c-1.8,2.6-4.4,5.4-6.6,7.6-.3-.5-.9-1.3-1.4-1.8,5.1-4.6,10.5-12.2,13-18.4l2.4,1.2c-.1.3-.5.5-.8.5-1.3,2.9-3,5.7-4.7,8.3,0,0,.3.2.5.3,0,.2-.2.4-.4.4v18.7h-2v-16.9Z"/>
  <path class="cls-1" d="M308,54.4h15.2v2.7h-15.2v-2.7Z"/>
</svg>